<svg xmlns="http://www.w3.org/2000/svg" xmlns:xlink="http://www.w3.org/1999/xlink" version="1.1" x="0px" y="0px" viewBox="0 0 100 100" enable-background="new 0 0 100 100" xml:space="preserve"><path d="M93.672,17.572L82.428,6.329c-1.771-1.772-4.652-1.772-6.424,0l-7.228,7.227c-0.444,0.444-0.444,1.163,0,1.606  l16.062,16.062c0.443,0.444,1.162,0.444,1.606,0l7.228-7.228C95.443,22.225,95.443,19.344,93.672,17.572z"></path><path d="M66.367,17.572c-0.444-0.445-1.162-0.445-1.606,0L13.364,68.969c-0.125,0.124-0.22,0.276-0.275,0.444l-8.03,24.092  c-0.136,0.408-0.029,0.858,0.274,1.162s0.754,0.41,1.162,0.273l24.092-8.029c0.168-0.057,0.32-0.15,0.444-0.275l51.396-51.396  c0.445-0.444,0.445-1.162,0-1.606L66.367,17.572z M15.197,89.646c-0.154-0.361-0.331-0.715-0.534-1.059  c-0.385-0.653-0.858-1.27-1.42-1.831s-1.178-1.035-1.831-1.42c-0.344-0.203-0.697-0.38-1.059-0.534l4.805-14.417  c1.574,0.604,3.104,1.386,4.555,2.337c2.97,1.935,5.626,4.589,7.568,7.57c0.946,1.443,1.729,2.973,2.333,4.549L15.197,89.646z"></path></svg>