<svg xmlns="http://www.w3.org/2000/svg" data-name="Layer 1" viewBox="0 0 100 100" x="0px" y="0px"><title>travel jadi</title><path d="M37.07,18.08,6.23,35.43,31.39,80.14V27.58h11ZM24.39,53.43,15.76,38.1l8.63-4.85Z"></path><path d="M93.77,35.43,62.93,18.08l-5.35,9.5h11.2V79.84Zm-18-2.09,8.46,4.76-8.46,15Z"></path><path d="M32.39,81.92H67.78V28.58H32.39ZM50.09,45.56c.65,0,1.27,0,1.88,0,0,.75.05,1.55.05,2.39s0,1.64-.05,2.39c-.6,0-1.22,0-1.88,0s-1.27,0-1.88,0c0-.75-.05-1.55-.05-2.39s0-1.64.05-2.39C48.81,45.57,49.43,45.56,50.09,45.56Zm-1.83-.78a37.34,37.34,0,0,1,.4-3.72c.47,0,.95-.07,1.43-.07s1,0,1.43.07a37.34,37.34,0,0,1,.4,3.72c-.61,0-1.22,0-1.83,0S48.86,44.76,48.25,44.78Zm4.52,5.56c0-.85.06-1.65.06-2.35s0-1.5-.06-2.35a33.77,33.77,0,0,1,3.73.42,18.28,18.28,0,0,1,0,3.87A33.75,33.75,0,0,1,52.77,50.34Zm3.62.43a15.27,15.27,0,0,1-.89,3.3,15.11,15.11,0,0,1-3.15.76c.18-1.19.3-2.46.37-3.67A36.14,36.14,0,0,0,56.39,50.76Zm-3.67-5.94c-.07-1.22-.19-2.49-.37-3.67a15.11,15.11,0,0,1,3.15.76,15.26,15.26,0,0,1,.89,3.3A36.14,36.14,0,0,0,52.73,44.82ZM55.06,55a6.89,6.89,0,0,1-3.77,3.69,11.22,11.22,0,0,0,.93-3.09A16.11,16.11,0,0,0,55.06,55Zm-5,.75c.44,0,.86,0,1.29-.06-.41,2.09-.94,3.2-1.29,3.2s-.87-1.11-1.29-3.2C49.22,55.77,49.65,55.8,50.09,55.8Zm-1.43-.88a37.31,37.31,0,0,1-.4-3.72c.61,0,1.22,0,1.83,0s1.23,0,1.83,0a37.31,37.31,0,0,1-.4,3.72c-.47,0-.95.07-1.43.07S49.12,55,48.65,54.92Zm7.76,12.77v1H43.75v-1Zm-7.54-8.94A6.89,6.89,0,0,1,45.11,55a16.12,16.12,0,0,0,2.85.6A11.22,11.22,0,0,0,48.88,58.74Zm-4.21-4.68a15.26,15.26,0,0,1-.89-3.3,36.17,36.17,0,0,0,3.67.39c.07,1.22.19,2.49.37,3.67A15.11,15.11,0,0,1,44.67,54.07Zm2.77-9.25a36.17,36.17,0,0,0-3.67.39,15.26,15.26,0,0,1,.89-3.3,15.12,15.12,0,0,1,3.15-.76C47.64,42.33,47.52,43.6,47.44,44.82Zm0,.82c0,.85-.06,1.65-.06,2.35s0,1.5.06,2.35a33.78,33.78,0,0,1-3.73-.42,18.27,18.27,0,0,1,0-3.87A33.75,33.75,0,0,1,47.4,45.64Zm-3.74,8a7.65,7.65,0,0,1-4.29-4.24,11.38,11.38,0,0,0,3.58,1.2A16.57,16.57,0,0,0,43.66,53.64Zm.41,1.05a10.08,10.08,0,0,0,2.6,3.7,11,11,0,0,1-6.83-6.58A10.71,10.71,0,0,0,44.07,54.69ZM60,73.46H40.12v-1H60ZM53.5,58.39a10.08,10.08,0,0,0,2.6-3.7,10.71,10.71,0,0,0,4.23-2.88A11,11,0,0,1,53.5,58.39Zm3-4.75a16.57,16.57,0,0,0,.72-3,11.38,11.38,0,0,0,3.58-1.2A7.65,7.65,0,0,1,56.51,53.64Zm.81-3.88c.06-.58.09-1.17.09-1.77s0-1.19-.09-1.78c2.38.5,3.71,1.2,3.71,1.78S59.71,49.26,57.33,49.76Zm-.1-4.4a16.57,16.57,0,0,0-.72-3,7.65,7.65,0,0,1,4.29,4.24A11.38,11.38,0,0,0,57.23,45.36Zm3.1-1.2a10.71,10.71,0,0,0-4.23-2.88,10.08,10.08,0,0,0-2.6-3.7A11,11,0,0,1,60.33,44.17Zm-5.27-3.24a16.12,16.12,0,0,0-2.85-.6,11.22,11.22,0,0,0-.93-3.09A6.89,6.89,0,0,1,55.06,40.93Zm-5-3.89c.35,0,.87,1.11,1.29,3.2-.42,0-.85-.06-1.29-.06s-.86,0-1.29.06C49.21,38.14,49.74,37,50.09,37Zm-1.21.2A11.22,11.22,0,0,0,48,40.32a16.12,16.12,0,0,0-2.85.6A6.89,6.89,0,0,1,48.88,37.23Zm-2.21.35a10.08,10.08,0,0,0-2.6,3.69,10.71,10.71,0,0,0-4.23,2.88A11,11,0,0,1,46.67,37.59Zm-3,4.75a16.56,16.56,0,0,0-.72,3,11.38,11.38,0,0,0-3.58,1.2A7.65,7.65,0,0,1,43.66,42.33Zm-.81,3.88c-.06.58-.09,1.17-.09,1.78s0,1.19.09,1.78c-2.38-.5-3.71-1.2-3.71-1.78S40.46,46.71,42.84,46.21Z"></path></svg>