<svg width="0" height="0" style="position:absolute"><symbol viewBox="0 0 100 100" id="svg-home" xmlns="http://www.w3.org/2000/svg"><path d="M82 91.1V56.9L50.1 29 18.2 56.9v34.2h24.3V65.4h15v25.7z"/><path d="M75.7 14.3h-10v8.9L50.1 9.3 5.6 49l6.7 7.5 37.8-33.8 37.8 33.8 6.7-7.5-18.9-16.9z"/></symbol><symbol viewBox="0 0 100 100" id="svg-pencil" xmlns="http://www.w3.org/2000/svg"><path d="M93.672 17.572L82.428 6.329a4.546 4.546 0 0 0-6.424 0l-7.228 7.227a1.135 1.135 0 0 0 0 1.606l16.062 16.062a1.135 1.135 0 0 0 1.606 0l7.228-7.228a4.548 4.548 0 0 0 0-6.424zM66.367 17.572a1.133 1.133 0 0 0-1.606 0L13.364 68.969c-.125.124-.22.276-.275.444l-8.03 24.092a1.133 1.133 0 1 0 1.436 1.435l24.092-8.029c.168-.057.32-.15.444-.275L82.427 35.24a1.133 1.133 0 0 0 0-1.606l-16.06-16.062zm-51.17 72.074a9.13 9.13 0 0 0-1.954-2.89 9.22 9.22 0 0 0-1.831-1.42 9.051 9.051 0 0 0-1.059-.534l4.805-14.417a24.01 24.01 0 0 1 4.555 2.337 26.318 26.318 0 0 1 7.568 7.57 23.936 23.936 0 0 1 2.333 4.549l-14.417 4.805z"/></symbol><symbol viewBox="0 0 100 100" id="svg-travel-document" xmlns="http://www.w3.org/2000/svg"><path d="M37.07 18.08L6.23 35.43l25.16 44.71V27.58h11zM24.39 53.43L15.76 38.1l8.63-4.85zM93.77 35.43L62.93 18.08l-5.35 9.5h11.2v52.26zm-18-2.09l8.46 4.76-8.46 15z"/><path d="M32.39 81.92h35.39V28.58H32.39zm17.7-36.36h1.88c0 .75.05 1.55.05 2.39s0 1.64-.05 2.39h-3.76c0-.75-.05-1.55-.05-2.39s0-1.64.05-2.39c.6.01 1.22 0 1.88 0zm-1.83-.78a37.34 37.34 0 0 1 .4-3.72c.47 0 .95-.07 1.43-.07s1 0 1.43.07a37.34 37.34 0 0 1 .4 3.72h-1.83c-.61 0-1.23-.02-1.84 0zm4.52 5.56c0-.85.06-1.65.06-2.35s0-1.5-.06-2.35a33.77 33.77 0 0 1 3.73.42 18.28 18.28 0 0 1 0 3.87 33.75 33.75 0 0 1-3.74.41zm3.62.43a15.27 15.27 0 0 1-.89 3.3 15.11 15.11 0 0 1-3.15.76c.18-1.19.3-2.46.37-3.67a36.14 36.14 0 0 0 3.66-.4zm-3.67-5.94c-.07-1.22-.19-2.49-.37-3.67a15.11 15.11 0 0 1 3.15.76 15.26 15.26 0 0 1 .89 3.3 36.14 36.14 0 0 0-3.67-.4zM55.06 55a6.89 6.89 0 0 1-3.77 3.69 11.22 11.22 0 0 0 .93-3.09 16.11 16.11 0 0 0 2.84-.6zm-5 .75c.44 0 .86 0 1.29-.06-.41 2.09-.94 3.2-1.29 3.2s-.87-1.11-1.29-3.2c.45.08.88.11 1.32.11zm-1.43-.88a37.31 37.31 0 0 1-.4-3.72h3.66a37.31 37.31 0 0 1-.4 3.72c-.47 0-.95.07-1.43.07s-.94.06-1.41-.02zm7.76 12.77v1H43.75v-1zm-7.54-8.94a6.89 6.89 0 0 1-3.74-3.7 16.12 16.12 0 0 0 2.85.6 11.22 11.22 0 0 0 .92 3.14zm-4.21-4.68a15.26 15.26 0 0 1-.89-3.3 36.17 36.17 0 0 0 3.67.39c.07 1.22.19 2.49.37 3.67a15.11 15.11 0 0 1-3.12-.71zm2.77-9.25a36.17 36.17 0 0 0-3.67.39 15.26 15.26 0 0 1 .89-3.3 15.12 15.12 0 0 1 3.15-.76c-.14 1.23-.26 2.5-.34 3.72zm0 .82c0 .85-.06 1.65-.06 2.35s0 1.5.06 2.35a33.78 33.78 0 0 1-3.73-.42 18.27 18.27 0 0 1 0-3.87 33.75 33.75 0 0 1 3.72-.36zm-3.74 8a7.65 7.65 0 0 1-4.29-4.24 11.38 11.38 0 0 0 3.58 1.2 16.57 16.57 0 0 0 .7 3.09zm.41 1.05a10.08 10.08 0 0 0 2.6 3.7 11 11 0 0 1-6.83-6.58 10.71 10.71 0 0 0 4.22 2.93zM60 73.46H40.12v-1H60zm-6.5-15.07a10.08 10.08 0 0 0 2.6-3.7 10.71 10.71 0 0 0 4.23-2.88 11 11 0 0 1-6.83 6.58zm3-4.75a16.57 16.57 0 0 0 .72-3 11.38 11.38 0 0 0 3.58-1.2 7.65 7.65 0 0 1-4.29 4.2zm.81-3.88c.06-.58.09-1.17.09-1.77s0-1.19-.09-1.78c2.38.5 3.71 1.2 3.71 1.78s-1.31 1.27-3.69 1.77zm-.1-4.4a16.57 16.57 0 0 0-.72-3 7.65 7.65 0 0 1 4.29 4.24 11.38 11.38 0 0 0-3.55-1.24zm3.1-1.2a10.71 10.71 0 0 0-4.23-2.88 10.08 10.08 0 0 0-2.6-3.7 11 11 0 0 1 6.85 6.59zm-5.27-3.24a16.12 16.12 0 0 0-2.85-.6 11.22 11.22 0 0 0-.93-3.09 6.89 6.89 0 0 1 3.8 3.7zm-5-3.89c.35 0 .87 1.11 1.29 3.2-.42 0-.85-.06-1.29-.06s-.86 0-1.29.06c.46-2.09.99-3.23 1.34-3.23zm-1.21.2a11.22 11.22 0 0 0-.83 3.09 16.12 16.12 0 0 0-2.85.6 6.89 6.89 0 0 1 3.73-3.69zm-2.21.35a10.08 10.08 0 0 0-2.6 3.69 10.71 10.71 0 0 0-4.23 2.88 11 11 0 0 1 6.88-6.56zm-3 4.75a16.56 16.56 0 0 0-.72 3 11.38 11.38 0 0 0-3.58 1.2 7.65 7.65 0 0 1 4.34-4.2zm-.81 3.88c-.06.58-.09 1.17-.09 1.78s0 1.19.09 1.78c-2.38-.5-3.71-1.2-3.71-1.78s1.36-1.28 3.74-1.78z"/></symbol></svg>